<svg xmlns="http://www.w3.org/2000/svg" version="1.1" viewBox="0.00 0.00 512.00 512.00">
  <g stroke-width="2.00" fill="none" stroke-linecap="butt">
    <path stroke="#6DB9EF" vector-effect="non-scaling-stroke" d="
      M 257.50 0.00
      L 257.28 128.25"
    />
    <path stroke="#3081D0" vector-effect="non-scaling-stroke" d="
      M 257.28 128.25
      Q 256.94 128.31 256.77 128.48"
    />
    <path stroke="#EEF5FF" vector-effect="non-scaling-stroke" d="
      M 256.77 128.48
      Q 223.83 128.71 196.16 143.91
      C 168.39 159.17 146.26 184.76 136.15 215.35
      Q 123.18 254.63 135.41 294.38
      C 141.40 313.85 153.02 332.59 167.22 346.51
      Q 203.93 382.52 256.53 383.58"
    />
    <path stroke="#3887BE" vector-effect="non-scaling-stroke" d="
      M 256.53 383.58
      Q 256.98 383.78 257.46 383.71"
    />
    <path stroke="#F4F27E" vector-effect="non-scaling-stroke" d="
      M 257.46 383.71
      L 257.45 512.00"
    />
    <path stroke="#FFF5C2" vector-effect="non-scaling-stroke" d="
      M 257.46 383.71
      Q 289.88 383.48 317.66 368.38
      C 341.97 355.18 362.19 333.78 373.47 308.35
      Q 388.14 275.27 383.59 239.27
      Q 382.28 228.89 379.41 219.58
      Q 367.79 181.98 338.38 157.62
      Q 303.70 128.89 257.28 128.25"
    />
    <path stroke="#f0f5f8" vector-effect="non-scaling-stroke" d="
      M 256.53 383.58
      L 257.13 383.54
      Q 257.86 383.50 257.64 382.80
      Q 257.58 382.63 257.53 382.45
      Q 257.47 382.24 257.47 382.01
      Q 257.46 339.12 257.48 296.16
      Q 257.48 295.82 257.18 295.70
      Q 256.87 295.57 256.80 295.74"
    />
    <path stroke="#cadee4" vector-effect="non-scaling-stroke" d="
      M 256.80 295.74
      L 257.44 294.76"
    />
    <path stroke="#a8c7cc" vector-effect="non-scaling-stroke" d="
      M 257.44 294.76
      Q 257.80 294.74 258.01 294.53
      Q 286.51 266.12 314.68 237.93
      C 326.47 226.12 314.10 207.17 298.57 213.08
      Q 295.79 214.14 289.25 220.69
      Q 273.47 236.49 257.51 252.36"
    />
    <path stroke="#f0f5f8" vector-effect="non-scaling-stroke" d="
      M 257.51 252.36
      Q 257.38 190.43 257.53 128.75
      Q 257.53 128.23 256.77 128.48"
    />
    <path stroke="#b7d1d4" vector-effect="non-scaling-stroke" d="
      M 257.51 252.36
      Q 257.29 252.72 257.40 252.73"
    />
    <path stroke="#d9e8eb" vector-effect="non-scaling-stroke" d="
      M 257.40 252.73
      L 234.89 275.24
      Q 234.44 275.68 234.00 275.23
      Q 226.35 267.56 218.91 260.14
      C 211.84 253.10 200.27 253.53 195.10 262.24
      Q 188.93 272.65 198.20 281.96
      Q 209.71 293.51 223.43 307.19
      C 229.54 313.28 239.03 313.52 245.28 307.29
      Q 251.06 301.53 256.80 295.74"
    />
    <path stroke="#91bac0" vector-effect="non-scaling-stroke" d="
      M 257.44 294.76
      L 257.40 252.73"
    />
  </g>
  <path fill="#6DB9EF" d="
    M 256.12 0.00
    L 257.50 0.00
    L 257.28 128.25
    Q 256.94 128.31 256.77 128.48
    Q 223.83 128.71 196.16 143.91
    C 168.39 159.17 146.26 184.76 136.15 215.35
    Q 123.18 254.63 135.41 294.38
    C 141.40 313.85 153.02 332.59 167.22 346.51
    Q 203.93 382.52 256.53 383.58
    Q 256.98 383.78 257.46 383.71
    L 257.45 512.00
    L 255.76 512.00
    Q 249.66 511.46 245.63 510.11
    Q 219.79 501.44 192.93 487.52
    C 169.50 475.37 147.38 460.32 128.23 442.45
    Q 83.48 400.69 61.79 341.28
    Q 52.74 316.50 48.02 291.17
    C 45.56 277.93 43.55 264.55 42.23 251.12
    Q 38.95 217.55 39.11 182.89
    Q 39.25 152.70 39.81 126.91
    Q 40.04 116.49 42.04 109.31
    Q 45.83 95.67 55.83 85.56
    Q 66.53 74.76 81.54 70.98
    C 89.20 69.05 98.17 68.88 106.35 68.09
    C 113.77 67.37 120.99 66.04 128.32 64.75
    C 135.07 63.58 141.61 61.66 148.21 59.91
    C 154.02 58.38 159.80 56.03 165.31 54.05
    Q 170.33 52.24 175.96 49.50
    C 180.99 47.05 185.94 44.91 190.62 42.05
    C 196.76 38.30 202.80 34.90 208.58 30.54
    C 213.14 27.11 217.76 23.90 222.04 20.10
    Q 228.41 14.45 234.77 8.80
    Q 243.88 0.72 256.12 0.00
    Z"
  />
  <path fill="#3081D0" d="
    M 257.50 0.00
    L 260.99 0.00
    Q 271.20 1.66 278.89 8.37
    C 285.63 14.25 291.92 20.26 298.89 25.45
    C 303.89 29.18 308.75 33.07 314.03 36.20
    C 319.87 39.67 325.55 43.40 331.60 46.24
    Q 335.61 48.11 339.78 50.12
    Q 344.01 52.16 348.69 53.95
    Q 376.46 64.53 406.93 67.83
    Q 408.72 68.02 410.57 68.11
    C 413.93 68.27 417.18 68.87 420.54 69.06
    Q 443.70 70.37 458.79 85.93
    Q 468.51 95.96 472.24 109.65
    Q 473.97 115.99 474.27 124.30
    C 475.24 151.14 475.15 178.14 474.90 205.12
    C 474.84 211.39 474.15 217.72 473.94 223.99
    Q 473.59 234.24 472.52 244.52
    Q 471.82 251.30 471.19 257.71
    Q 470.55 264.20 469.53 270.79
    Q 468.04 280.30 466.42 289.23
    Q 459.96 324.82 446.15 356.63
    Q 421.93 412.41 376.16 451.02
    Q 357.67 466.62 336.25 479.21
    Q 303.59 498.41 266.99 510.73
    Q 265.15 511.35 260.63 512.00
    L 257.45 512.00
    L 257.46 383.71
    Q 289.88 383.48 317.66 368.38
    C 341.97 355.18 362.19 333.78 373.47 308.35
    Q 388.14 275.27 383.59 239.27
    Q 382.28 228.89 379.41 219.58
    Q 367.79 181.98 338.38 157.62
    Q 303.70 128.89 257.28 128.25
    L 257.50 0.00
    Z"
  />
  <path fill="#e1ebf0" d="
    M 257.28 128.25
    Q 303.70 128.89 338.38 157.62
    Q 367.79 181.98 379.41 219.58
    Q 382.28 228.89 383.59 239.27
    Q 388.14 275.27 373.47 308.35
    C 362.19 333.78 341.97 355.18 317.66 368.38
    Q 289.88 383.48 257.46 383.71
    Q 256.98 383.78 256.53 383.58
    L 257.13 383.54
    Q 257.86 383.50 257.64 382.80
    Q 257.58 382.63 257.53 382.45
    Q 257.47 382.24 257.47 382.01
    Q 257.46 339.12 257.48 296.16
    Q 257.48 295.82 257.18 295.70
    Q 256.87 295.57 256.80 295.74
    L 257.44 294.76
    Q 257.80 294.74 258.01 294.53
    Q 286.51 266.12 314.68 237.93
    C 326.47 226.12 314.10 207.17 298.57 213.08
    Q 295.79 214.14 289.25 220.69
    Q 273.47 236.49 257.51 252.36
    Q 257.38 190.43 257.53 128.75
    Q 257.53 128.23 256.77 128.48
    Q 256.94 128.31 257.28 128.25
    Z"
  />
  <path fill="#ffffff" d="
    M 256.77 128.48
    Q 257.53 128.23 257.53 128.75
    Q 257.38 190.43 257.51 252.36
    Q 257.29 252.72 257.40 252.73
    L 234.89 275.24
    Q 234.44 275.68 234.00 275.23
    Q 226.35 267.56 218.91 260.14
    C 211.84 253.10 200.27 253.53 195.10 262.24
    Q 188.93 272.65 198.20 281.96
    Q 209.71 293.51 223.43 307.19
    C 229.54 313.28 239.03 313.52 245.28 307.29
    Q 251.06 301.53 256.80 295.74
    Q 256.87 295.57 257.18 295.70
    Q 257.48 295.82 257.48 296.16
    Q 257.46 339.12 257.47 382.01
    Q 257.47 382.24 257.53 382.45
    Q 257.58 382.63 257.64 382.80
    Q 257.86 383.50 257.13 383.54
    L 256.53 383.58
    Q 203.93 382.52 167.22 346.51
    C 153.02 332.59 141.40 313.85 135.41 294.38
    Q 123.18 254.63 136.15 215.35
    C 146.26 184.76 168.39 159.17 196.16 143.91
    Q 223.83 128.71 256.77 128.48
    Z"
  />
  <path fill="#3C4048" d="
    M 257.44 294.76
    L 257.40 252.73
    Q 257.29 252.72 257.51 252.36
    Q 273.47 236.49 289.25 220.69
    Q 295.79 214.14 298.57 213.08
    C 314.10 207.17 326.47 226.12 314.68 237.93
    Q 286.51 266.12 258.01 294.53
    Q 257.80 294.74 257.44 294.76
    Z"
  />
  <path fill="#B2B2B2" d="
    M 257.40 252.73
    L 257.44 294.76
    L 256.80 295.74
    Q 251.06 301.53 245.28 307.29
    C 239.03 313.52 229.54 313.28 223.43 307.19
    Q 209.71 293.51 198.20 281.96
    Q 188.93 272.65 195.10 262.24
    C 200.27 253.53 211.84 253.10 218.91 260.14
    Q 226.35 267.56 234.00 275.23
    Q 234.44 275.68 234.89 275.24
    L 257.40 252.73
    Z"
  />
</svg>